<?xml version="1.0" standalone="no"?>
<!DOCTYPE svg PUBLIC "-//W3C//DTD SVG 1.1//EN" "http://www.w3.org/Graphics/SVG/1.1/DTD/svg11.dtd" >
<svg xmlns="http://www.w3.org/2000/svg">
<metadata>
This is a custom SVG webfont generated by Font Squirrel.
Copyright   : Copyright c 2011 by Vegaasen All rights reserved
Designer    : Vegard Aasen
Foundry     : Vegaasen
Foundry URL : httpwwwvegaasencom
</metadata>
<defs>
<font id="vegaasencomf2Regular" horiz-adv-x="1228" >
<font-face units-per-em="2048" ascent="1638" descent="-410" />
<missing-glyph horiz-adv-x="507" />
<glyph unicode=" "  horiz-adv-x="507" />
<glyph unicode="&#x09;" horiz-adv-x="507" />
<glyph unicode="&#xa0;" horiz-adv-x="507" />
<glyph unicode="!" horiz-adv-x="409" d="M154 0v104h104v-104h-104zM158 1401h94l-10 -1125h-76z" />
<glyph unicode="&#x22;" horiz-adv-x="694" d="M145 1401h103l-35 -371h-37zM391 1401h103l-35 -371h-37z" />
<glyph unicode="#" horiz-adv-x="1261" d="M63 377l17 57h225l123 412h-225l16 57h227l113 377h68l-113 -377h387l113 377h67l-112 -377h225l-16 -57h-228l-123 -412h228l-17 -57h-227l-113 -377h-67l112 377h-387l-112 -377h-68l113 377h-226zM373 434h387l123 412h-387z" />
<glyph unicode="$" horiz-adv-x="1103" d="M115 94v72q51 -51 159 -103q109 -53 244 -53l4 725q-39 20 -68 35.5t-48 26.5t-42.5 26.5t-52.5 35.5q-57 40 -85 73q-27 33 -48.5 82t-21.5 104q0 143 103 221t263 88v189h60v-186q52 -1 100 -9t93 -22t76 -28t50 -28l37 -28v-68q-12 15 -41 39q-26 22 -119 63 q-91 40 -196 42v-580l62 -35l66 -38l59 -36q22 -14 37 -24.5t24 -18.5l51 -45q31 -27 46 -53l31 -58q18 -34 24.5 -69.5t6.5 -77.5q0 -141 -112 -252q-110 -108 -295 -128v-172h-60v168q-113 0 -215 30q-103 32 -147 61zM225 1141q0 -50 20 -93q22 -43 70 -80 q25 -19 46.5 -34.5t41.5 -26.5l119 -65v547q-120 -12 -209 -77q-88 -64 -88 -171zM582 14q138 18 232 108q95 92 95 208q0 70 -19.5 122t-68.5 97q-25 23 -49 41.5t-49 33.5q-50 31 -141 81v-691z" />
<glyph unicode="%" horiz-adv-x="1802" d="M166 1065q0 163 62 264q63 101 202 101q262 0 262 -365q0 -367 -262 -367q-264 0 -264 367zM233 1065q0 -87 14.5 -151t40 -106t61.5 -62.5t79 -20.5q199 0 199 340q0 338 -195 338q-45 0 -81.5 -20t-63 -61t-40.5 -105t-14 -152zM406 2l870 1401h63l-874 -1401h-59z M1055 338q0 364 264 364q262 0 262 -364q0 -366 -262 -366q-264 0 -264 366zM1120 338q0 -175 55 -257t142 -82q199 0 199 339q0 336 -195 336q-45 0 -82 -20t-63.5 -61t-41 -104.5t-14.5 -150.5z" />
<glyph unicode="&#x26;" horiz-adv-x="1404" d="M162 375q0 94 34 169q35 77 85 121q51 45 101 75.5t85 43.5l35 13q-166 208 -166 344q0 142 90 216q89 73 227 73q167 -1 250 -72l-2 -68l-29 28q-18 17 -82 45q-62 28 -133 28q-128 0 -183 -75q-56 -76 -56 -167q0 -50 19 -101q10 -26 18.5 -44.5t15.5 -30.5 q7 -11 21.5 -31t36.5 -48l46 -58q18 -28 476 -560q98 198 98 474h84q4 -330 -129 -537l186 -213h-112l-125 145q-154 -173 -416 -173q-215 0 -344 114q-131 116 -131 289zM254 377q0 -168 117 -268q117 -99 264 -99q233 0 371 191l-476 561q-5 -1 -12.5 -3t-17.5 -5 q-18 -5 -66 -35q-45 -28 -84 -68q-37 -38 -67 -112q-29 -73 -29 -162z" />
<glyph unicode="'" horiz-adv-x="413" d="M174 1401h94l-30 -371h-43z" />
<glyph unicode="(" horiz-adv-x="702" d="M166 627q0 256 90 504t242 399h49q-153 -198 -224 -395q-69 -195 -69 -508q0 -149 17.5 -273.5t53.5 -228.5q35 -103 91 -202.5t131 -197.5h-49q-154 154 -243 395q-89 243 -89 507z" />
<glyph unicode=")" horiz-adv-x="702" d="M168 -275q150 195 221 400q72 207 72 502q0 158 -17.5 284t-52.5 224q-35 99 -90 197t-133 198h49q152 -151 242 -399t90 -504q0 -263 -89 -507q-89 -241 -243 -395h-49z" />
<glyph unicode="*" horiz-adv-x="1089" d="M256 1055l23 63l227 -90q-3 82 -5.5 143t-4.5 103h63l-10 -248q78 33 134.5 56t94.5 36l21 -63l-240 -68l156 -188l-51 -39l-138 198l-133 -198l-53 39l156 190z" />
<glyph unicode="+" horiz-adv-x="1236" d="M227 524v54h363v366h61v-366h365v-54h-365v-368h-61v368h-363z" />
<glyph unicode="," horiz-adv-x="409" d="M143 -165l54 165h-43v104h104v-84l-76 -185h-39z" />
<glyph unicode="-" horiz-adv-x="743" d="M127 592v49h489v-49h-489z" />
<glyph unicode="." horiz-adv-x="409" d="M154 0v104h104v-104h-104z" />
<glyph unicode="/" horiz-adv-x="1062" d="M25 -241l909 1810h63l-913 -1810h-59z" />
<glyph unicode="0" d="M104 700q0 157 27 283t84 229t158 160.5t241 57.5q510 0 510 -730q0 -159 -26.5 -285t-84.5 -229q-57 -103 -158 -158.5t-241 -55.5q-510 0 -510 728zM197 700q0 -353 116 -522q117 -168 299 -168q189 0 305 162q115 161 115 528q1 691 -411 691q-190 0 -307 -167 t-117 -524z" />
<glyph unicode="1" d="M225 1196v45l361 160h92v-1360h346v-41h-778v41h340v1315z" />
<glyph unicode="2" d="M143 0v47l502 500q162 161 220 263q59 104 59 234q0 159 -86 253q-85 94 -244 94q-57 0 -113 -15.5t-98 -38.5t-73 -46t-48 -38l-14 -16v68q8 7 19.5 15.5t25.5 18.5q29 21 118 56q90 35 179 35q121 0 209.5 -37.5t133.5 -100.5q45 -61 64 -121.5t19 -121.5 q0 -86 -22.5 -159t-77.5 -148q-27 -37 -51 -67.5t-45 -53.5t-54 -56l-78 -78l-442 -440h798v-47h-901z" />
<glyph unicode="3" d="M203 94v68q2 -3 4.5 -7t8.5 -10t16 -15t27 -22q33 -26 72 -46q19 -9 44.5 -18.5t55 -17t62.5 -12t66 -4.5q165 0 266 102q101 104 101 269q0 49 -15.5 100t-51.5 106q-36 57 -110.5 91.5t-177.5 34.5h-98v53h78q48 0 97.5 13.5t104.5 43.5q57 31 91.5 97t34.5 159 q0 159 -84 236q-83 76 -213 76q-179 0 -306 -119v57q13 12 37 27q24 17 105 46q78 28 164 28q193 0 290 -103q97 -101 97 -252q0 -76 -28 -135.5t-64 -94.5q-17 -17 -38 -32t-44 -27q-24 -12 -41.5 -19.5t-31.5 -12t-25 -6.5t-21 -5q11 -2 24 -4.5t27 -6.5q31 -8 84 -34 q28 -13 52 -28.5t45 -33.5q42 -36 75 -105q33 -68 33 -152q0 -165 -114 -286t-343 -121q-110 0 -198 30q-89 32 -123 61z" />
<glyph unicode="4" d="M94 414v47l690 940h88v-930h205v-57h-205v-414h-88v414h-690zM166 471h618v844z" />
<glyph unicode="5" d="M207 98v74q3 -3 6 -7t9 -10.5t16 -16t28 -23.5q17 -14 35.5 -26t37.5 -23t43.5 -21t53.5 -18q30 -9 60 -13t61 -4q209 0 301 122t92 310q0 231 -106 334q-104 103 -260 103q-55 0 -105.5 -16.5t-82.5 -40.5q-31 -23 -55.5 -47.5t-35.5 -41.5l-10 -16h-47v684h717v-41 h-629v-535q5 5 12 11l18 14q21 16 87 42q69 26 137 26q225 0 337 -133q113 -133 113 -341q0 -91 -22.5 -168.5t-74.5 -149.5t-149 -113t-233 -41q-109 0 -195.5 27t-146.5 87z" />
<glyph unicode="6" d="M156 565q0 76 3 144.5t10.5 131t20.5 120.5t32 114q37 111 97 188q60 76 155.5 121.5t221.5 45.5q85 0 156 -25q73 -26 102 -49l31 -25v-65q-12 13 -37 34q-12 10 -37 24.5t-63 31.5q-78 35 -154 35q-121 0 -210 -56t-140 -159q-51 -102 -75.5 -225t-24.5 -273 q44 105 141 172q100 68 246 68q222 0 335 -132q113 -131 113 -337q0 -85 -24.5 -164.5t-75.5 -152.5t-144 -116.5t-217 -43.5q-247 0 -354 144q-108 145 -108 449zM250 449q0 -209 102 -324t262 -115q168 0 271 115q104 116 104 324q0 210 -101 320t-261 110 q-152 0 -265 -110q-112 -109 -112 -320z" />
<glyph unicode="7" d="M135 1360v41h981v-37l-696 -1364h-96l700 1360h-889z" />
<glyph unicode="8" d="M178 354q0 85 22.5 153.5t64.5 120t102 85.5t135 49q-124 28 -186 119q-60 90 -60 206q0 162 107 252q107 91 255 91q174 0 267 -95q94 -94 94 -239q0 -112 -65 -206q-65 -93 -183 -126q165 -28 244 -136q78 -107 78 -261q0 -165 -113 -281q-111 -114 -324 -114 q-221 0 -329 108q-109 109 -109 274zM270 354q0 -173 94 -258q95 -86 250 -86q168 0 258 81q91 81 91 276q0 206 -99 287q-50 41 -101 57q-26 9 -58.5 17.5t-71.5 10.5l-72 4q-13 -2 -32 -6q-20 -5 -69 -30q-25 -13 -47 -28.5t-41 -34.5q-39 -39 -70 -115q-32 -78 -32 -175z M344 1085q0 -226 180 -290q13 -5 30 -8.5t34.5 -6t34 -4t28.5 -2.5h27q4 1 9 2t13.5 3.5t20.5 7.5t30 16q19 11 35.5 24t30.5 29q29 31 51.5 94.5t22.5 145.5q0 158 -68.5 226.5t-201.5 68.5q-277 -1 -277 -306z" />
<glyph unicode="9" d="M150 952q0 85 24.5 164.5t75.5 151.5q51 73 143.5 117.5t216.5 44.5q246 0 354 -146q109 -145 109 -448q0 -152 -14.5 -275t-52.5 -236q-37 -112 -97 -188t-155.5 -120.5t-221.5 -44.5q-85 0 -156 25q-71 22 -102 48l-30 25v65q6 -7 15 -16t21 -19q25 -21 101 -55 q78 -35 154 -35q121 0 210 56t140 158q51 103 75.5 225.5t24.5 273.5q-44 -105 -142 -172q-98 -68 -245 -68q-223 0 -336 131q-112 130 -112 338zM240 952q0 -212 100 -321t262 -109q152 0 264 109q113 110 113 321q0 209 -103 324q-102 115 -262 115q-168 0 -271 -115 t-103 -324z" />
<glyph unicode=":" horiz-adv-x="409" d="M154 0v104h104v-104h-104zM154 647v105h104v-105h-104z" />
<glyph unicode=";" horiz-adv-x="409" d="M143 -165l54 165h-43v104h104v-84l-76 -185h-39zM154 647v105h104v-105h-104z" />
<glyph unicode="&#x3c;" horiz-adv-x="1265" d="M227 510v41l799 512v-68l-727 -465l727 -462v-68z" />
<glyph unicode="=" horiz-adv-x="1265" d="M227 383v70h799v-70h-799zM227 674v69h799v-69h-799z" />
<glyph unicode="&#x3e;" horiz-adv-x="1265" d="M227 0v68l727 462l-727 465v68l799 -512v-41z" />
<glyph unicode="?" horiz-adv-x="1044" d="M150 1249v66q7 6 17 13.5t24 17.5t45 23t80 29q99 32 208 32q185 0 307 -105q121 -103 121 -272q0 -26 -2 -51.5t-6 -48.5q-8 -46 -18.5 -79.5t-34.5 -66.5q-11 -17 -21 -30t-18 -23t-20.5 -21.5t-30.5 -24.5l-53 -38l-60 -36l-59 -36q-93 -58 -123 -97t-31 -128l-2 -97 h-80v99q0 47 8.5 84.5t26.5 68.5t46 57.5t67 51.5q10 6 30.5 19.5t52.5 32.5t53 32t32 21t27 21t38 31q43 37 58 69q16 32 31.5 81t15.5 109q0 154 -107 246t-250 92q-111 0 -204 -36q-91 -35 -130 -71zM381 0v104h104v-104h-104z" />
<glyph unicode="@" horiz-adv-x="1878" d="M152 434q0 398 198 619q200 221 613 221q392 0 583 -194t191 -531q0 -269 -105 -411q-102 -141 -254 -141q-32 0 -58.5 6.5t-48.5 20.5q-22 15 -35.5 27.5t-21 24.5t-11.5 23.5t-7 23.5q-12 -17 -34 -40q-21 -24 -94 -63q-76 -37 -153 -37q-171 0 -268 128 q-98 130 -98 350t104 351q105 130 279 130q163 0 270 -90l25 80h33v-762q0 -69 36 -106q37 -37 82 -37q106 0 188 130q83 131 83 392q0 152 -35 271.5t-112 215.5q-78 97 -214 150t-325 53q-366 0 -544 -211q-179 -212 -179 -592q0 -184 47 -324.5t139 -235.5t226.5 -143.5 t310.5 -48.5q54 0 106.5 6.5t100.5 17.5t89 25.5t73 31.5q66 34 114.5 67.5t71.5 57.5l22 23v-66q-3 -4 -8 -9l-12 -12q-7 -7 -22.5 -18.5t-40.5 -28.5t-52.5 -31.5t-58.5 -28.5q-30 -13 -71 -25t-93 -23q-101 -22 -219 -22q-394 0 -602 202q-209 201 -209 583zM639 463 q0 -447 283 -447q52 0 94 16t73.5 38.5t52.5 46.5t32 41l10 16v639q-4 5 -10.5 11t-16.5 14q-19 15 -79 42q-30 13 -62.5 20t-67.5 7q-163 0 -237 -125q-72 -125 -72 -319z" />
<glyph unicode="A" horiz-adv-x="1292" d="M43 0l616 1425h31l559 -1425h-94l-217 553h-594l-242 -553h-59zM360 594h562l-267 680z" />
<glyph unicode="B" horiz-adv-x="1101" d="M150 0v1401h294q103 0 182 -16.5t145 -54.5q67 -38 101.5 -109t34.5 -174q0 -59 -16.5 -109t-48 -90t-76.5 -68t-102 -41q140 -12 237 -106q98 -95 98 -242q0 -199 -121 -295q-120 -96 -393 -96h-335zM238 41h208q247 0 354 72q107 74 107 278q0 164 -113 245t-280 81 h-276v-676zM238 758h274q303 0 303 289q0 82 -23.5 141t-59.5 92t-94 51q-59 20 -110 24q-26 2 -56.5 3.5t-65.5 1.5h-168v-602z" />
<glyph unicode="C" horiz-adv-x="1243" d="M102 707q0 144 37 270t112 229t199 163.5t287 60.5q106 0 202 -27q48 -14 83 -27t59 -25t38 -22t22 -18v-70q-141 150 -410 150q-103 0 -194 -36.5t-170 -114.5q-78 -78 -125 -214t-47 -319q0 -343 149 -520q148 -177 385 -177q124 0 232 41q54 20 91 38.5t57 34.5 q39 30 52 50v-70q-49 -49 -158 -91q-109 -41 -278 -41q-163 0 -286.5 60.5t-195.5 166.5t-106.5 233.5t-34.5 274.5z" />
<glyph unicode="D" horiz-adv-x="1376" d="M150 0v1401h456q173 0 304 -57t209 -156t116.5 -222t38.5 -268q0 -292 -150 -487q-75 -99 -205 -155t-303 -56h-466zM238 41h337q276 0 441 159q166 160 166 498q0 185 -48 316.5t-136 205.5t-189 107t-227 33h-344v-1319z" />
<glyph unicode="E" horiz-adv-x="931" d="M150 0v1401h684v-41h-596v-604h460v-41h-460v-674h596v-41h-684z" />
<glyph unicode="F" horiz-adv-x="901" d="M150 0v1401h684v-41h-596v-604h460v-41h-460v-715h-88z" />
<glyph unicode="G" horiz-adv-x="1284" d="M102 702q0 144 37 270.5t112 231.5q75 106 199 166t289 60q104 0 202 -26q97 -26 141 -51q45 -25 59 -40v-74q-146 152 -408 152q-103 0 -195 -37.5t-171 -115.5q-78 -78 -125 -215t-47 -321q0 -341 151 -516q152 -176 389 -176q180 0 334 94v504h92v-524 q-41 -41 -161 -77q-120 -35 -271 -35q-163 0 -287.5 59.5t-196.5 165.5t-107.5 232.5t-35.5 272.5z" />
<glyph unicode="H" horiz-adv-x="1335" d="M150 0v1401h88v-649h860v649h88v-1401h-88v711h-860v-711h-88z" />
<glyph unicode="I" horiz-adv-x="428" d="M170 0v1401h88v-1401h-88z" />
<glyph unicode="J" horiz-adv-x="428" d="M-108 -157q40 2 74 9t63 20q48 20 76.5 50t42.5 70q13 39 17.5 71.5t4.5 79.5v1258h88v-1153q0 -203 -47 -286q-46 -83 -170 -127q-15 -5 -31.5 -8.5t-32.5 -6t-31 -4.5t-25 -3h-20z" />
<glyph unicode="K" horiz-adv-x="1097" d="M150 0v1401h88v-770l673 770h72l-545 -627l625 -774h-109l-575 707l-141 -162v-545h-88z" />
<glyph unicode="L" horiz-adv-x="946" d="M150 0v1401h88v-1360h661v-41h-749z" />
<glyph unicode="M" horiz-adv-x="1648" d="M74 0l217 1401h63l455 -1251l475 1251h57l234 -1401h-88l-207 1235l-469 -1235h-43l-446 1233l-191 -1233h-57z" />
<glyph unicode="N" horiz-adv-x="1337" d="M150 0v1401h63l920 -1245v1245h55v-1401h-49l-934 1266v-1266h-55z" />
<glyph unicode="O" horiz-adv-x="1441" d="M102 700q0 153 30 275.5t96 228.5q67 108 191.5 167t301.5 59q618 0 618 -730q0 -151 -30 -274t-99 -229q-67 -106 -192.5 -165.5t-300.5 -59.5q-614 0 -615 728zM195 700q0 -355 145 -522q145 -168 375 -168q244 0 388 162t144 528q0 375 -138 533t-382 158 q-242 0 -387 -166t-145 -525z" />
<glyph unicode="P" horiz-adv-x="1005" d="M150 0v1401h284q275 0 387 -101q111 -101 111 -311q0 -175 -117 -284q-116 -109 -348 -109h-229v-596h-88zM238 633h204q194 0 296 91.5t102 264.5q0 206 -94 288q-94 83 -293 83h-215v-727z" />
<glyph unicode="Q" horiz-adv-x="1441" d="M102 698q0 119 17.5 220.5t60.5 197.5q44 97 111 164q69 69 178.5 109.5t251.5 40.5q618 0 618 -732q0 -132 -23.5 -242t-74.5 -210t-145 -168t-224 -91l412 -29v-76l-661 96q-259 37 -389.5 212t-131.5 508zM195 698q0 -355 145 -521q146 -167 375 -167q244 0 388 161 q144 160 144 527q0 375 -138 534t-382 159q-241 0 -387 -167q-145 -166 -145 -526z" />
<glyph unicode="R" horiz-adv-x="1075" d="M150 0v1401h284q275 0 387 -101q111 -101 111 -311q0 -138 -75 -238q-74 -99 -222 -137l379 -614h-103l-366 600q-25 -2 -44.5 -3t-33.5 -1h-229v-596h-88zM238 633h204q194 0 296 91.5t102 264.5q0 206 -94 288q-94 83 -293 83h-215v-727z" />
<glyph unicode="S" horiz-adv-x="1058" d="M92 94v72q49 -49 160 -103q112 -53 244 -53q159 0 274 94q117 94 117 226q0 37 -4.5 68.5t-16 59t-30.5 52t-47 48.5q-57 49 -105 77q-25 14 -63.5 35.5t-92.5 50.5q-107 57 -175.5 98.5t-100.5 67.5q-119 101 -119 231q0 154 118 233t294 79q107 0 202 -29 q47 -14 79 -29t51 -29l38 -28v-68q-12 15 -42 40q-26 23 -124 64q-95 40 -202 40q-132 0 -238 -66q-106 -64 -106 -184q0 -49 17.5 -88t67.5 -79q25 -20 44.5 -34.5t33.5 -24.5q28 -18 118 -65l116 -62q107 -57 178.5 -108.5t110.5 -96.5q78 -87 78 -227q0 -156 -130 -271 q-129 -113 -341 -113q-111 0 -213 30q-103 32 -146 61z" />
<glyph unicode="T" horiz-adv-x="1189" d="M37 1360v41h1116v-41h-514v-1360h-88v1360h-514z" />
<glyph unicode="U" horiz-adv-x="1316" d="M143 596v805h88v-832q0 -171 32.5 -285.5t94.5 -171.5q61 -58 132 -80t167 -22q100 0 175 22.5t141 79.5q67 58 103 172t36 285v832h62v-791q0 -76 -5 -140t-15 -117q-20 -106 -73 -198q-106 -183 -417 -183q-163 0 -268 41t-160 129t-74 192t-19 262z" />
<glyph unicode="V" horiz-adv-x="1255" d="M33 1401h94l498 -1260l540 1260h58l-590 -1401h-49z" />
<glyph unicode="W" horiz-adv-x="1978" d="M43 1401h88l401 -1247l410 1247h62l444 -1247l430 1247h57l-483 -1401h-45l-449 1264l-417 -1264h-49z" />
<glyph unicode="X" horiz-adv-x="1251" d="M63 0l512 688l-495 713h104l447 -639l483 639h74l-522 -686l514 -715h-107l-461 639l-475 -639h-74z" />
<glyph unicode="Y" horiz-adv-x="1130" d="M53 1401h105l413 -727l441 727h65l-477 -785v-616h-88v606z" />
<glyph unicode="Z" horiz-adv-x="1165" d="M78 0v37l899 1323h-817v41h925v-37l-903 -1323h905v-41h-1009z" />
<glyph unicode="[" horiz-adv-x="626" d="M201 -474v2047h276v-60h-213v-1928h213v-59h-276z" />
<glyph unicode="\" horiz-adv-x="862" d="M-60 1569h62l909 -1810h-59z" />
<glyph unicode="]" horiz-adv-x="626" d="M121 -415h213v1928h-213v60h276v-2047h-276v59z" />
<glyph unicode="^" horiz-adv-x="1265" d="M233 801l373 512h58l372 -512h-67l-334 456l-340 -456h-62z" />
<glyph unicode="_" horiz-adv-x="1069" d="M23 -212h1024v-51h-1024v51z" />
<glyph unicode="`" horiz-adv-x="389" d="M59 1288h97l151 -211h-51z" />
<glyph unicode="a" horiz-adv-x="927" d="M104 268q0 279 390 279h221v125q0 227 -221 227q-91 0 -164.5 -23.5t-126.5 -76.5l-8 -8v59q13 11 34 24q23 16 101 38q78 24 164 24q94 0 156.5 -24.5t91.5 -70.5q30 -46 41.5 -93.5t11.5 -110.5v-637h-47l-23 125q-110 -140 -303 -140q-67 0 -123 16.5t-103 51.5 q-92 69 -92 215zM193 262q0 -123 67 -181t178 -58q83 0 151 37q70 37 99 75l27 37v334h-191q-69 0 -115 -6q-45 -6 -102 -29q-55 -22 -84.5 -74.5t-29.5 -134.5z" />
<glyph unicode="b" horiz-adv-x="995" d="M143 0v1401h80v-600q4 6 11.5 15t32.5 31t55 41t78 33.5t102 14.5q205 0 298 -120t93 -355q0 -229 -98.5 -352.5t-294.5 -123.5q-167 0 -275 126l-12 14l-23 -125h-47zM223 174q4 -7 11.5 -18t18.5 -25q24 -30 93 -70q71 -41 152 -41q153 0 229 97q78 97 78 344 q0 237 -78 338q-78 100 -227 100q-84 0 -149.5 -33.5t-112.5 -105.5l-15 -23v-563z" />
<glyph unicode="c" horiz-adv-x="864" d="M104 459q0 210 95 344q96 133 317 133q83 0 149 -25q69 -25 95 -49l26 -24v-64q0 2 -9 14t-32 31q-11 9 -24 18.5t-28 17.5q-29 17 -76.5 30.5t-98.5 13.5q-325 0 -325 -437q0 -441 327 -442q81 0 146 25q34 13 57.5 24.5t36.5 24.5l26 27v-58l-30 -21q-20 -14 -89 -36 q-69 -21 -151 -21q-219 0 -316 133q-96 133 -96 341z" />
<glyph unicode="d" horiz-adv-x="995" d="M104 461q0 236 93.5 355.5t298.5 119.5q83 0 151 -34q35 -17 59.5 -33t38.5 -33l29 -35v600h80v-1401h-49l-21 125q-4 -6 -11 -15.5t-34 -34.5q-24 -23 -57 -43q-31 -18 -80 -32.5t-104 -14.5q-199 0 -296.5 123t-97.5 353zM193 461q0 -247 76 -344t229 -97q81 0 151 41 q35 20 58.5 38t35.5 32q13 14 20.5 25t10.5 18v563q-2 3 -4 7t-6 10.5t-11.5 15.5t-20.5 23q-14 14 -27 26t-28 23q-30 22 -77.5 39.5t-101.5 17.5q-153 0 -229 -100q-76 -98 -76 -338z" />
<glyph unicode="e" horiz-adv-x="966" d="M104 469q0 91 19.5 167.5t61.5 146.5q42 72 124.5 112.5t196.5 40.5q358 0 358 -440v-33h-671q0 -442 315 -443q207 0 305 125v-61q-4 -5 -11 -12t-17 -16q-20 -17 -99 -45q-81 -26 -180 -26q-199 0 -301 127q-101 128 -101 357zM195 504h579q0 92 -9 155t-36 122 q-27 60 -81.5 89t-141.5 29q-147 0 -229 -109q-82 -107 -82 -286z" />
<glyph unicode="f" horiz-adv-x="606" d="M61 879v41h144v210q0 136 56 204q55 67 206 67h111v-41h-105q-188 0 -188 -209v-231h252v-41h-252v-879h-80v879h-144z" />
<glyph unicode="g" horiz-adv-x="995" d="M104 459q0 232 91 354q91 123 303 123q81 0 151 -35q35 -17 58.5 -35t37.5 -35l29 -34l31 123h49v-927q0 -403 -358 -404q-82 0 -151 22q-71 21 -101 42l-31 22v64q12 -12 33 -30q23 -20 95 -51q75 -32 155 -32q278 0 278 312v175l-8 -7q-8 -11 -29.5 -31.5t-55.5 -40.5 t-80.5 -34.5t-104.5 -14.5q-391 0 -392 474zM193 461q0 -251 79 -346q80 -95 226 -95q82 0 150 39q67 38 97 74q29 35 29 41v563q-2 3 -4 7t-6 10.5t-11.5 15.5t-20.5 23q-14 14 -27 26t-28 23q-30 22 -78.5 39.5t-102.5 17.5q-145 0 -224 -100q-79 -98 -79 -338z" />
<glyph unicode="h" horiz-adv-x="983" d="M143 0v1401h80v-598q2 3 4.5 6t7 8t12.5 12t22 19t28.5 22.5t30.5 18.5q16 9 37.5 17.5t46 15t52 10.5t54.5 4q166 0 249 -90t83 -254v-592h-80v573q0 159 -64 242.5t-192 83.5q-66 0 -122 -19.5t-93 -56.5q-19 -19 -31 -31.5t-18 -19.5t-12 -16.5t-13 -20.5l-2 -2v-733 h-80z" />
<glyph unicode="i" horiz-adv-x="401" d="M164 0v920h80v-920h-80zM164 1161v125h80v-125h-80z" />
<glyph unicode="j" horiz-adv-x="401" d="M-67 -329q14 5 35 14t48 21q148 66 148 229v985h80v-893q0 -167 -50 -241t-169 -119l-83 -22zM164 1161v125h80v-125h-80z" />
<glyph unicode="k" horiz-adv-x="843" d="M143 0v1401h80v-965l455 484h61l-325 -351l395 -569h-94l-355 514l-137 -147v-367h-80z" />
<glyph unicode="l" horiz-adv-x="401" d="M164 0v1401h80v-1401h-80z" />
<glyph unicode="m" horiz-adv-x="1538" d="M143 0v920h47l23 -125l8 8q10 10 35.5 32t63.5 44.5t88.5 39.5t111.5 17q215 0 266 -154q127 154 316 154q81 0 138 -22t93.5 -65t53 -107t16.5 -148v-594h-80v582q0 159 -53 238t-174 79q-84 0 -157 -39q-37 -20 -62 -39.5t-41 -38.5l-33 -39v-743h-80v625 q0 141 -45 207q-45 67 -166 67q-51 0 -99 -15.5t-81 -38.5t-59 -45.5t-37 -37.5l-13 -17v-745h-80z" />
<glyph unicode="n" horiz-adv-x="983" d="M143 0v920h47l23 -127q0 5 33 37q34 32 109 69t165 37q330 0 330 -328v-608h-80v580q0 319 -254 319q-83 0 -156 -39q-36 -20 -62 -38.5t-42.5 -34t-24.5 -26t-8 -13.5v-748h-80z" />
<glyph unicode="o" horiz-adv-x="1021" d="M104 461q0 97 20.5 177.5t65.5 149.5q46 70 128 109t196 39q115 0 196.5 -39t126.5 -109q45 -69 64 -149.5t19 -177.5t-20.5 -177.5t-67.5 -150.5t-127.5 -109t-192.5 -39q-114 0 -196 39t-127 109t-65 150.5t-20 177.5zM193 464q0 -232 88 -338t229 -106q321 0 321 438 v3q0 239 -83 339q-83 99 -232 99q-323 0 -323 -435z" />
<glyph unicode="p" horiz-adv-x="995" d="M143 -411v1331h47l23 -134q0 2 10 16.5t34 37.5q24 24 56 44q33 21 84 36.5t111 15.5q385 0 385 -473q0 -114 -24.5 -202.5t-73 -150t-122 -93.5t-171.5 -32q-84 0 -152.5 26.5t-116.5 88.5l-10 13v-524h-80zM223 174l11 -16q4 -5 12 -14t21 -23t27 -26t28 -22 q30 -21 78 -37t102 -16q152 0 227 100q76 100 76 340t-78 339q-78 100 -221 100q-55 0 -105.5 -16.5t-81.5 -40.5q-30 -23 -52.5 -47.5t-33.5 -40.5l-10 -17v-563z" />
<glyph unicode="q" horiz-adv-x="995" d="M104 459q0 477 388 477q51 0 92.5 -10.5t74 -27t56 -36t38.5 -36.5l16 -19q4 -4 6.5 -7.5t4.5 -6.5l4 -7l21 134h49v-1331h-80v524q-5 -7 -12.5 -16t-18.5 -20q-18 -21 -94 -58q-76 -34 -157 -34q-195 0 -291.5 122t-96.5 352zM193 459q0 -240 76 -340q76 -99 225 -99 q86 0 155 39q35 20 58.5 39t37.5 37l29 39v563l-11 18q-3 5 -11.5 14.5t-21.5 23.5q-25 28 -55 49q-30 22 -78.5 39.5t-102.5 17.5q-145 0 -223 -99q-78 -98 -78 -341z" />
<glyph unicode="r" horiz-adv-x="628" d="M143 0v920h47l23 -136q0 5 23 37q24 31 85 67t138 36q33 0 57.5 -3t32.5 -6l8 -2v-63q-38 22 -93 22h-5q-77 0 -135 -34q-58 -33 -78 -68l-23 -33v-737h-80z" />
<glyph unicode="s" horiz-adv-x="784" d="M104 66v61q9 -10 20.5 -20t25.5 -21q14 -10 36.5 -21t53.5 -22q64 -23 131 -23q104 0 172 56q69 57 69 143q0 78 -49 123q-25 23 -63 47.5t-92 50.5q-39 20 -68 35.5t-49 26.5q-20 12 -40 27t-42 32q-43 35 -60.5 75t-17.5 91q0 102 75 155q75 54 193 54q73 0 133 -19 q62 -18 86 -36l25 -19v-59q-5 5 -12.5 11.5t-17.5 14.5q-19 16 -83 43q-32 13 -64 20t-65 7q-77 0 -142 -37q-66 -38 -66 -114q0 -35 11 -63t43 -54q16 -13 28.5 -22t20.5 -15q16 -12 73 -41l71 -37q128 -67 184 -126t56 -161t-82 -174q-82 -70 -227 -70q-81 0 -147 19 q-65 19 -93 41z" />
<glyph unicode="t" horiz-adv-x="647" d="M61 879v41h144v241h80v-241h293v-41h-293v-629q0 -104 43 -157.5t145 -53.5h82v-39h-90q-147 0 -204 67q-56 68 -56 207v605h-144z" />
<glyph unicode="u" horiz-adv-x="993" d="M143 328v592h80v-584q0 -315 258 -316q63 0 117.5 20t92.5 57l51 50q8 7 14 16t12 19l2 2v736h80v-920h-49l-21 127l-12 -14q-12 -14 -37.5 -36t-58.5 -44q-33 -21 -85 -34.5t-110 -13.5q-167 0 -250.5 89t-83.5 254z" />
<glyph unicode="v" horiz-adv-x="884" d="M57 920h84l316 -814l319 814h51l-360 -920h-53z" />
<glyph unicode="w" horiz-adv-x="1394" d="M43 920h84l264 -805l279 805h53l262 -805l311 805h52l-359 -920h-49l-260 799l-279 -799h-53z" />
<glyph unicode="x" horiz-adv-x="874" d="M57 0l342 449l-329 471h96l283 -414l311 414h57l-338 -451l334 -469h-94l-291 410l-311 -410h-60z" />
<glyph unicode="y" horiz-adv-x="884" d="M57 920h86l312 -811l319 811h53l-530 -1331h-49l166 411z" />
<glyph unicode="z" horiz-adv-x="847" d="M63 0v33l629 848h-579v39h671l2 -33l-626 -848h602v-39h-699z" />
<glyph unicode="{" horiz-adv-x="626" d="M115 520v58h37q66 0 94 32t28 101v686q0 176 205 176h35v-57h-35q-75 0 -106 -32.5t-31 -101.5v-686q0 -119 -100 -147q98 -27 98 -166v-679q0 -121 137 -121h35v-57h-35q-203 0 -203 172v701q0 121 -122 121h-37z" />
<glyph unicode="|" horiz-adv-x="534" d="M229 -409v2047h66v-2047h-66z" />
<glyph unicode="}" horiz-adv-x="626" d="M115 1516v57h35q204 0 204 -176v-686q0 -69 28.5 -101t94.5 -32h37v-58h-37q-123 0 -123 -121v-701q0 -172 -202 -172h-35v57h35q137 0 137 121v679q0 139 98 166q-100 28 -100 147v686q0 69 -32.5 101.5t-104.5 32.5h-35z" />
<glyph unicode="~" horiz-adv-x="1064" d="M111 502v65q77 80 219 80q95 0 192 -64q97 -63 170 -63q150 0 219 88v-67q-33 -35 -86.5 -54.5t-128.5 -21.5q-48 -2 -95.5 14.5t-98.5 48.5q-101 64 -172 64q-40 0 -74.5 -8t-62 -20.5t-48.5 -29t-34 -32.5z" />
<glyph unicode="&#xa1;" horiz-adv-x="409" d="M154 815v105h104v-105h-104zM158 -480l8 1123h76l10 -1123h-94z" />
<glyph unicode="&#xa2;" horiz-adv-x="1015" d="M102 532q0 112 21 201.5t69 167.5t134 125t204 55v162h66v-160q91 -4 160.5 -32.5t120.5 -79.5l8 -8v-78l-12 17q-8 10 -36 39q-27 27 -60 49q-16 11 -38.5 21t-48.5 18t-55.5 13t-59.5 5q-382 0 -382 -515q1 -260 100.5 -386t284.5 -126q91 0 167 29q75 28 107 57l31 27 v-59q-11 -11 -31 -24q-21 -14 -96 -39t-160 -26v-164h-66v164q-228 17 -328 167q-100 152 -100 380z" />
<glyph unicode="&#xa3;" horiz-adv-x="1110" d="M119 0v33q157 112 212 234q56 126 56 288l-10 109h-176v53h168q-4 23 -11 53t-17 66q-19 73 -30.5 132t-11.5 119q0 152 90 250q90 99 287 99q89 0 170 -32q40 -16 67.5 -32.5t44.5 -30.5l35 -30v-78q-19 26 -49.5 53.5t-74.5 55.5q-87 57 -197 57q-138 0 -209.5 -81.5 t-71.5 -230.5q0 -62 9 -123q5 -31 12 -64t15 -70q16 -70 24 -113h360v-53h-352q4 -28 6 -66t2 -88q0 -80 -23 -161q-22 -78 -54 -131q-32 -52 -63.5 -92t-54.5 -60l-22 -19h743v-47h-874z" />
<glyph unicode="&#xa4;" horiz-adv-x="1110" d="M113 137l108 107q-90 111 -90 299t90 299l-108 108l47 47l108 -110q100 84 270 84t273 -86l111 112l47 -47l-113 -110q86 -110 86 -297q0 -184 -88 -293l115 -113l-47 -47l-113 113q-103 -86 -272 -86q-168 0 -271 82l-106 -109zM209 543q0 -201 92 -287q94 -86 234 -86 q146 0 238 88q93 88 93 285q0 372 -325 372q-332 -2 -332 -372z" />
<glyph unicode="&#xa5;" horiz-adv-x="1122" d="M33 1401h104l414 -727l440 727h66l-340 -557h227v-62h-264l-100 -166h364v-61h-364v-555h-88v555h-351v61h344l-96 166h-248v62h213z" />
<glyph unicode="&#xa6;" horiz-adv-x="391" d="M150 -409v972h65v-972h-65zM150 666v972h65v-972h-65z" />
<glyph unicode="&#xa7;" horiz-adv-x="983" d="M115 -224q13 -13 28.5 -26t35.5 -27t49.5 -29t69.5 -30q79 -30 159 -30q133 0 229 78t96 191q0 109 -69 181q-35 36 -91 73.5t-137 75.5q-82 39 -131 67q-50 28 -102 69q-54 42 -78 91t-24 109q0 123 83 191q85 70 216 80q-147 72 -223 142t-76 177q0 131 96 202 q97 71 243 71q100 0 179 -25q42 -13 70 -24.5t44 -24.5l31 -25v-69q-6 7 -15 15.5t-22 19.5q-12 11 -38 25.5t-68 32.5q-83 36 -172 36q-113 0 -198 -48q-85 -46 -85 -153q0 -35 8 -63.5t34 -56.5q13 -14 24 -25l19 -19q8 -8 25 -19t42 -25q26 -14 43.5 -23.5t27.5 -14.5 l88 -43q204 -100 267 -188q65 -91 65 -203q0 -42 -13 -82.5t-38 -76.5t-60 -66.5t-79 -53.5q115 -76 152 -149q38 -73 38 -161q0 -131 -114 -228q-112 -97 -287 -97q-92 0 -181 26q-43 13 -74.5 25t-49.5 26l-37 27v74zM215 602q0 -35 7.5 -64t34.5 -56l43 -44 q18 -18 67 -44l71 -38l88 -43l97 -51q72 35 115.5 95.5t43.5 134.5q0 102 -60 171q-60 71 -196 138q-118 10 -215 -38q-96 -48 -96 -161z" />
<glyph unicode="&#xa8;" horiz-adv-x="733" d="M178 1163v125h80v-125h-80zM455 1163v125h80v-125h-80z" />
<glyph unicode="&#xa9;" horiz-adv-x="1914" d="M207 700q0 298 218 513q217 214 509 214t509 -214q218 -215 218 -513q0 -303 -212 -515q-211 -211 -515 -211t-515 211q-212 212 -212 515zM262 700q0 -279 196 -475t475 -196q280 0 476 196q197 197 197 475q0 273 -203 473q-202 199 -469 199t-469 -199 q-203 -200 -203 -473zM567 686q0 185 100 312q101 128 291 128q166 0 248 -82v-63l-8 10l-12 13l-15 14q-11 10 -18 15q-8 5 -21.5 14.5t-25.5 14.5q-28 11 -64 20.5t-86 9.5q-119 0 -206 -100q-86 -100 -86 -306q0 -193 83 -291q84 -98 211 -98q75 0 138 28q64 28 87 48 q11 10 20 19.5t16 17.5v-62q-31 -31 -105 -61q-75 -29 -158 -29q-190 0 -290 124q-99 124 -99 304z" />
<glyph unicode="&#xaa;" horiz-adv-x="694" d="M78 920q0 206 268 206h172v80q0 170 -156 170q-131 0 -219 -69v36q73 56 219 58q129 0 174 -59q46 -58 46 -160v-461h-41l-15 76q-78 -88 -217 -88q-95 0 -163 52q-68 53 -68 159zM150 918q0 -43 13 -76.5t35.5 -57t53.5 -35.5t67 -12q54 0 104 24q25 13 43 25.5t30 24.5 l22 23v260h-129q-47 0 -82 -5.5t-75 -21.5q-39 -16 -60.5 -54t-21.5 -95z" />
<glyph unicode="&#xab;" horiz-adv-x="806" d="M72 516v29l321 375h78l-334 -388l328 -389h-78zM293 516v29l321 375h78l-334 -388l328 -389h-78z" />
<glyph unicode="&#xac;" horiz-adv-x="1095" d="M76 1010v53h917v-576h-57v523h-860z" />
<glyph unicode="&#xad;" horiz-adv-x="743" d="M127 592v49h489v-49h-489z" />
<glyph unicode="&#xae;" horiz-adv-x="1005" d="M90 1022q0 168 121 288t289 120t287 -120q120 -120 120 -288t-120 -289q-118 -121 -287 -121q-168 0 -289 120t-121 290zM135 1022q0 -153 106 -259t258 -106t258 106q107 107 107 259q0 150 -107 257t-258 107q-152 0 -258 -106t-106 -258zM369 778v506h108 q98 0 138 -37t40 -117q0 -104 -98 -133l133 -219h-49l-123 207h-106v-207h-43zM412 1012h67q61 0 95 31.5t34 86.5q0 69 -30.5 98t-94.5 29h-71v-245z" />
<glyph unicode="&#xaf;" horiz-adv-x="722" d="M166 1198v49h391v-49h-391z" />
<glyph unicode="&#xb0;" horiz-adv-x="831" d="M182 1179q0 93 65 158q66 66 158 66t158 -66t66 -158t-66 -158q-65 -65 -158 -65t-158 65t-65 158zM244 1180q0 -71 46 -117q47 -47 116 -47q67 0 114 47t47 117q0 68 -47 115q-47 48 -115 48t-114 -48q-47 -47 -47 -115z" />
<glyph unicode="&#xb1;" horiz-adv-x="1236" d="M227 524v54h363v366h61v-366h365v-54h-365v-368h-61v368h-363zM229 0v51h799v-51h-799z" />
<glyph unicode="&#xb2;" horiz-adv-x="681" d="M80 717v31l258 260q35 35 59 65t40 56q32 52 32 110q0 160 -164 160q-56 0 -102 -28q-48 -29 -68 -54v43q67 63 170 63q119 0 169 -53t50 -133q0 -46 -22 -91q-21 -47 -43 -73q-11 -13 -25.5 -30.5t-34.5 -38.5l-249 -252h405v-35h-475z" />
<glyph unicode="&#xb3;" horiz-adv-x="669" d="M98 754v39q104 -74 187 -74q72 0 122 47t50 131q0 68 -42 116t-126 48h-74v33h66q53 0 105 34t52 119q0 152 -143 152q-98 0 -162 -64v39q70 49 162 49q97 0 147 -46.5t50 -127.5q0 -65 -47 -112q-46 -44 -85 -58q154 -39 154 -182q0 -84 -62 -144q-62 -59 -167 -59 q-109 0 -187 60z" />
<glyph unicode="&#xb4;" horiz-adv-x="401" d="M59 1077l152 211h96l-196 -211h-52z" />
<glyph unicode="&#xb5;" horiz-adv-x="993" d="M143 -411v1331h80v-584q0 -315 258 -316q63 0 117.5 20t92.5 57l51 50q8 7 14 16t12 19l2 2v736h80v-920h-49l-21 127l-12 -14q-12 -14 -37.5 -36t-58.5 -44q-33 -21 -85 -34.5t-110 -13.5q-176 0 -254 109v-505h-80z" />
<glyph unicode="&#xb6;" horiz-adv-x="1089" d="M131 989q0 121 45 207t121 128t152 59.5t163 17.5h301v-1401h-88v596h-127v-596h-88v596q-237 5 -358 111q-121 108 -121 282zM236 989q0 -184 97 -265q97 -80 277 -91v725q-374 0 -374 -369zM698 633h127v727h-127v-727z" />
<glyph unicode="&#xb7;" horiz-adv-x="409" d="M154 565v105h104v-105h-104z" />
<glyph unicode="&#xb8;" horiz-adv-x="659" d="M145 -329q84 -39 148 -39q84 0 127 36t43 89q0 72 -47 98q-45 25 -154 37l14 126h46l-7 -91q82 0 142 -42q61 -42 61 -124q0 -81 -55.5 -127.5t-155.5 -46.5q-90 0 -162 33v51z" />
<glyph unicode="&#xb9;" horiz-adv-x="544" d="M115 1317v37l114 47h54v-684h-56v645z" />
<glyph unicode="&#xba;" horiz-adv-x="747" d="M78 1059q0 149 69 247q70 97 226 97q297 0 297 -344q0 -153 -70 -251q-71 -99 -227 -99q-160 0 -228 98q-67 97 -67 252zM141 1059q0 -166 64 -245t166 -79q233 0 233 324q0 319 -229 319q-105 0 -170 -77q-64 -76 -64 -242z" />
<glyph unicode="&#xbb;" horiz-adv-x="806" d="M111 920h77l322 -375v-29l-315 -373h-78l327 389zM332 920h78l321 -375v-29l-315 -373h-78l328 389z" />
<glyph unicode="&#xbc;" horiz-adv-x="1421" d="M115 1317v37l114 47h54v-684h-56v645zM207 0l870 1401h64l-875 -1401h-59zM844 197v24l346 471h53v-463h103v-32h-103v-197h-55v197h-344zM893 229h295v404z" />
<glyph unicode="&#xbd;" horiz-adv-x="1521" d="M115 1317v37l114 47h54v-684h-56v645zM207 0l870 1401h64l-875 -1401h-59zM920 0v31l258 260q35 35 59 65t40 56q32 52 32 110q0 160 -164 160q-56 0 -103 -28q-48 -28 -67 -54v43q69 64 170 64q118 1 169 -54q50 -53 50 -133q0 -46 -22 -91q-21 -47 -43 -73 q-11 -13 -25.5 -30.5t-34.5 -38.5l-250 -252h406v-35h-475z" />
<glyph unicode="&#xbe;" horiz-adv-x="1544" d="M98 754v39q104 -74 187 -74q72 0 122 47t50 131q0 68 -42 116t-126 48h-74v33h66q53 0 105 34t52 119q0 152 -143 152q-98 0 -162 -64v39q70 49 162 49q97 0 147 -46.5t50 -127.5q0 -65 -47 -112q-46 -44 -85 -58q154 -39 154 -182q0 -84 -62 -144q-62 -59 -167 -59 q-109 0 -187 60zM330 0l870 1401h64l-875 -1401h-59zM967 197v24l346 471h53v-463h102v-32h-102v-197h-55v197h-344zM1016 229h295v404z" />
<glyph unicode="&#xbf;" horiz-adv-x="1044" d="M100 -132q0 26 1.5 51t6.5 48q8 45 18.5 79t33.5 66q24 34 40 52q16 19 52 47q34 26 52 38q9 5 24 14t37 23l59 36q48 29 78 53.5t44 43.5t22.5 51t9.5 77l2 96h79v-98q0 -47 -8.5 -84.5t-26 -68.5t-45.5 -57.5t-67 -51.5q-10 -6 -31 -19.5t-53 -32.5t-53 -32.5 t-32 -21.5q-21 -15 -64 -52q-42 -36 -59 -69q-15 -31 -30.5 -79.5t-15.5 -108.5q0 -155 106 -246q107 -92 250 -92q70 0 133.5 14.5t105.5 35.5q42 20 73.5 41t46.5 36l14 14v-65q-7 -6 -17 -14l-25 -17q-29 -21 -125 -52q-99 -32 -208 -32q-186 0 -307 105 q-121 103 -121 272zM567 815v105h105v-105h-105z" />
<glyph unicode="&#xc0;" horiz-adv-x="1292" d="M43 0l616 1425h31l559 -1425h-94l-217 553h-594l-242 -553h-59zM360 594h562l-267 680zM434 1772h96l152 -211h-51z" />
<glyph unicode="&#xc1;" horiz-adv-x="1292" d="M43 0l616 1425h31l559 -1425h-94l-217 553h-594l-242 -553h-59zM360 594h562l-267 680zM678 1561l151 211h97l-197 -211h-51z" />
<glyph unicode="&#xc2;" horiz-adv-x="1292" d="M43 0l616 1425h31l559 -1425h-94l-217 553h-594l-242 -553h-59zM360 594h562l-267 680zM440 1561l213 211h29l213 -211h-70l-157 159l-158 -159h-70z" />
<glyph unicode="&#xc3;" horiz-adv-x="1292" d="M43 0l616 1425h31l559 -1425h-94l-217 553h-594l-242 -553h-59zM346 1608q45 166 176 166q61 0 149 -61q88 -60 136 -60q47 0 77 37q30 38 36 82h57q-39 -168 -168 -168q-68 0 -155 60t-128 60q-91 0 -120 -116h-60zM360 594h562l-267 680z" />
<glyph unicode="&#xc4;" horiz-adv-x="1292" d="M43 0l616 1425h31l559 -1425h-94l-217 553h-594l-242 -553h-59zM360 594h562l-267 680zM451 1561v129h90v-129h-90zM809 1561v129h90v-129h-90z" />
<glyph unicode="&#xc5;" horiz-adv-x="1292" d="M43 0l616 1425h31l559 -1425h-94l-217 553h-594l-242 -553h-59zM360 594h562l-267 680zM522 1712q0 63 44 107q43 43 107 43t107 -43t43 -107t-43 -107q-44 -44 -107 -44t-107 44t-44 107zM571 1712q0 -21 8 -40t22 -32.5t33 -21.5t40 -8q40 0 71 29q31 30 31 73 q0 41 -31 72q-30 31 -71 31q-43 0 -73 -31q-30 -32 -30 -72z" />
<glyph unicode="&#xc6;" horiz-adv-x="1669" d="M27 0l829 1401h684v-41h-596v-643h461v-41h-461v-635h596v-41h-684v676h-362l-406 -676h-61zM514 717h342v586z" />
<glyph unicode="&#xc7;" horiz-adv-x="1243" d="M102 707q0 144 37 270t112 229t199 163.5t287 60.5q106 0 202 -27q48 -14 83 -27t59 -25t38 -22t22 -18v-70q-141 150 -410 150q-103 0 -194 -36.5t-170 -114.5q-78 -78 -125 -214t-47 -319q0 -343 149 -520q148 -177 385 -177q124 0 232 41q54 20 91 38.5t57 34.5 q39 30 52 50v-70q-49 -49 -158 -91q-109 -41 -278 -41l-2 -45q82 0 142 -42q61 -42 61 -124q0 -81 -56 -127.5t-155 -46.5q-90 0 -162 33v51q84 -39 147 -39q84 0 127 36t43 89q0 72 -47 98q-45 25 -153 37l8 82q-151 8 -265 72t-180 169q-131 209 -131 492z" />
<glyph unicode="&#xc8;" horiz-adv-x="931" d="M150 0v1401h684v-41h-596v-604h460v-41h-460v-674h596v-41h-684zM246 1772h96l152 -211h-52z" />
<glyph unicode="&#xc9;" horiz-adv-x="931" d="M150 0v1401h684v-41h-596v-604h460v-41h-460v-674h596v-41h-684zM334 1561l151 211h97l-197 -211h-51z" />
<glyph unicode="&#xca;" horiz-adv-x="931" d="M150 0v1401h684v-41h-596v-604h460v-41h-460v-674h596v-41h-684zM262 1561l213 211h29l213 -211h-70l-158 159l-157 -159h-70z" />
<glyph unicode="&#xcb;" horiz-adv-x="931" d="M150 0v1401h684v-41h-596v-604h460v-41h-460v-674h596v-41h-684zM268 1561v129h90v-129h-90zM627 1561v129h90v-129h-90z" />
<glyph unicode="&#xcc;" horiz-adv-x="428" d="M-9 1772h95l152 -211h-52zM170 0v1401h88v-1401h-88z" />
<glyph unicode="&#xcd;" horiz-adv-x="428" d="M170 0v1401h88v-1401h-88zM199 1561l151 211h96l-196 -211h-51z" />
<glyph unicode="&#xce;" horiz-adv-x="428" d="M-13 1561l212 211h28l213 -211h-69l-158 159l-158 -159h-68zM170 0v1401h88v-1401h-88z" />
<glyph unicode="&#xcf;" horiz-adv-x="428" d="M-9 1561v129h89v-129h-89zM170 0v1401h88v-1401h-88zM348 1561v129h90v-129h-90z" />
<glyph unicode="&#xd0;" horiz-adv-x="1478" d="M80 690v41h172v670h457q173 0 304 -57t208 -156t116 -222t39 -268q0 -146 -36.5 -267t-112.5 -220t-205.5 -155t-302.5 -56h-467v690h-172zM340 41h338q276 0 441 159q165 160 165 498q0 185 -47.5 316.5t-135.5 205.5t-189.5 107t-227.5 33h-344v-629h414v-41h-414v-649 z" />
<glyph unicode="&#xd1;" horiz-adv-x="1337" d="M150 0v1401h63l920 -1245v1245h55v-1401h-49l-934 1266v-1266h-55zM352 1608q45 166 176 166q61 0 149 -61q88 -60 136 -60q47 0 77 37q30 38 36 82h57q-39 -168 -168 -168q-68 0 -155 60t-128 60q-91 0 -120 -116h-60z" />
<glyph unicode="&#xd2;" horiz-adv-x="1441" d="M102 700q0 153 30 275.5t96 228.5q67 108 191.5 167t301.5 59q618 0 618 -730q0 -151 -30 -274t-99 -229q-67 -106 -192.5 -165.5t-300.5 -59.5q-614 0 -615 728zM195 700q0 -355 145 -522q145 -168 375 -168q244 0 388 162t144 528q0 375 -138 533t-382 158 q-242 0 -387 -166t-145 -525zM543 1772h96l152 -211h-52z" />
<glyph unicode="&#xd3;" horiz-adv-x="1441" d="M102 700q0 153 30 275.5t96 228.5q67 108 191.5 167t301.5 59q618 0 618 -730q0 -151 -30 -274t-99 -229q-67 -106 -192.5 -165.5t-300.5 -59.5q-614 0 -615 728zM195 700q0 -355 145 -522q145 -168 375 -168q244 0 388 162t144 528q0 375 -138 533t-382 158 q-242 0 -387 -166t-145 -525zM676 1563l151 211h97l-197 -211h-51z" />
<glyph unicode="&#xd4;" horiz-adv-x="1441" d="M102 700q0 153 30 275.5t96 228.5q67 108 191.5 167t301.5 59q618 0 618 -730q0 -151 -30 -274t-99 -229q-67 -106 -192.5 -165.5t-300.5 -59.5q-614 0 -615 728zM195 700q0 -355 145 -522q145 -168 375 -168q244 0 388 162t144 528q0 375 -138 533t-382 158 q-242 0 -387 -166t-145 -525zM489 1561l213 211h29l213 -211h-70l-157 159l-158 -159h-70z" />
<glyph unicode="&#xd5;" horiz-adv-x="1441" d="M102 700q0 153 30 275.5t96 228.5q67 108 191.5 167t301.5 59q618 0 618 -730q0 -151 -30 -274t-99 -229q-67 -106 -192.5 -165.5t-300.5 -59.5q-614 0 -615 728zM195 700q0 -355 145 -522q145 -168 375 -168q244 0 388 162t144 528q0 375 -138 533t-382 158 q-242 0 -387 -166t-145 -525zM412 1608q45 166 176 166q61 0 149 -61q88 -60 135 -60q49 0 77 37q30 38 36 82h57q-39 -168 -168 -168q-68 0 -155 60q-86 60 -127 60q-92 0 -121 -116h-59z" />
<glyph unicode="&#xd6;" horiz-adv-x="1441" d="M102 700q0 153 30 275.5t96 228.5q67 108 191.5 167t301.5 59q618 0 618 -730q0 -151 -30 -274t-99 -229q-67 -106 -192.5 -165.5t-300.5 -59.5q-614 0 -615 728zM195 700q0 -355 145 -522q145 -168 375 -168q244 0 388 162t144 528q0 375 -138 533t-382 158 q-242 0 -387 -166t-145 -525zM494 1561v129h90v-129h-90zM852 1561v129h90v-129h-90z" />
<glyph unicode="&#xd7;" horiz-adv-x="1265" d="M324 309l262 262l-262 263l41 40l262 -262l262 262l41 -40l-262 -263l262 -262l-41 -41l-262 262l-262 -262z" />
<glyph unicode="&#xd8;" horiz-adv-x="1441" d="M102 700q0 153 30 275.5t96 228.5q67 108 191.5 167t301.5 59q253 0 405 -125l72 96h64l-99 -131q176 -185 176 -570q0 -151 -30 -274t-99 -229q-67 -106 -192.5 -165.5t-300.5 -59.5q-267 0 -418 139l-82 -111h-59l106 145q-162 184 -162 555zM195 700q0 -313 120 -487 l775 1042q-128 136 -363 136q-240 1 -387 -167q-145 -166 -145 -524zM346 172q133 -162 369 -162q244 0 388 162t144 528q0 339 -125 514z" />
<glyph unicode="&#xd9;" horiz-adv-x="1316" d="M143 596v805h88v-832q0 -171 32.5 -285.5t94.5 -171.5q61 -58 132 -80t167 -22q100 0 175 22.5t141 79.5q67 58 103 172t36 285v832h62v-791q0 -76 -5 -140t-15 -117q-20 -106 -73 -198q-106 -183 -417 -183q-163 0 -268 41t-160 129t-74 192t-19 262zM446 1772h97 l151 -211h-51z" />
<glyph unicode="&#xda;" horiz-adv-x="1316" d="M143 596v805h88v-832q0 -171 32.5 -285.5t94.5 -171.5q61 -58 132 -80t167 -22q100 0 175 22.5t141 79.5q67 58 103 172t36 285v832h62v-791q0 -76 -5 -140t-15 -117q-20 -106 -73 -198q-106 -183 -417 -183q-163 0 -268 41t-160 129t-74 192t-19 262zM631 1561l151 211 h97l-197 -211h-51z" />
<glyph unicode="&#xdb;" horiz-adv-x="1316" d="M143 596v805h88v-832q0 -171 32.5 -285.5t94.5 -171.5q61 -58 132 -80t167 -22q100 0 175 22.5t141 79.5q67 58 103 172t36 285v832h62v-791q0 -76 -5 -140t-15 -117q-20 -106 -73 -198q-106 -183 -417 -183q-163 0 -268 41t-160 129t-74 192t-19 262zM434 1561l213 211 h29l213 -211h-70l-157 159l-158 -159h-70z" />
<glyph unicode="&#xdc;" horiz-adv-x="1316" d="M143 596v805h88v-832q0 -171 32.5 -285.5t94.5 -171.5q61 -58 132 -80t167 -22q100 0 175 22.5t141 79.5q67 58 103 172t36 285v832h62v-791q0 -76 -5 -140t-15 -117q-20 -106 -73 -198q-106 -183 -417 -183q-163 0 -268 41t-160 129t-74 192t-19 262zM426 1561v129h90 v-129h-90zM784 1561v129h90v-129h-90z" />
<glyph unicode="&#xdd;" horiz-adv-x="1130" d="M53 1401h105l413 -727l441 727h65l-477 -785v-616h-88v606zM512 1561l152 211h96l-197 -211h-51z" />
<glyph unicode="&#xde;" horiz-adv-x="1030" d="M150 0v1401h92v-289h110q137 0 237 -17q98 -16 181 -60q82 -45 122 -127t40 -208q0 -175 -128 -285q-128 -108 -374 -108h-188v-307h-92zM242 344h147q211 0 324 78q114 78 114 278q0 209 -109 290q-108 81 -319 81h-157v-727z" />
<glyph unicode="&#xdf;" horiz-adv-x="1034" d="M150 0v950q0 471 366 471q143 0 210 -70q67 -68 67 -175q0 -73 -43 -138q-22 -32 -45.5 -59t-49.5 -47q-50 -39 -94 -96q-43 -53 -43 -107q0 -34 11 -61.5t33 -51.5t53.5 -45.5t72.5 -42.5q140 -72 192 -130q54 -59 54 -161t-83 -179q-81 -75 -230 -75q-63 0 -119.5 13 t-108.5 41v57q110 -76 228 -76q112 0 175.5 53t63.5 150q0 83 -43 126q-22 22 -61 47.5t-97 54.5q-97 48 -147 103q-51 55 -51 157q0 60 26 104t61 76l72 64q37 33 62 89t25 129q0 211 -191 213q-150 0 -219 -88q-68 -89 -68 -288v-1008h-79z" />
<glyph unicode="&#xe0;" horiz-adv-x="927" d="M104 268q0 279 390 279h221v125q0 227 -221 227q-91 0 -164.5 -23.5t-126.5 -76.5l-8 -8v59q13 11 34 24q23 16 101 38q78 24 164 24q94 0 156.5 -24.5t91.5 -70.5q30 -46 41.5 -93.5t11.5 -110.5v-637h-47l-23 125q-110 -140 -303 -140q-67 0 -123 16.5t-103 51.5 q-92 69 -92 215zM193 262q0 -123 67 -181t178 -58q83 0 151 37q70 37 99 75l27 37v334h-191q-69 0 -115 -6q-45 -6 -102 -29q-55 -22 -84.5 -74.5t-29.5 -134.5zM268 1288h97l151 -211h-51z" />
<glyph unicode="&#xe1;" horiz-adv-x="927" d="M104 268q0 279 390 279h221v125q0 227 -221 227q-91 0 -164.5 -23.5t-126.5 -76.5l-8 -8v59q13 11 34 24q23 16 101 38q78 24 164 24q94 0 156.5 -24.5t91.5 -70.5q30 -46 41.5 -93.5t11.5 -110.5v-637h-47l-23 125q-110 -140 -303 -140q-67 0 -123 16.5t-103 51.5 q-92 69 -92 215zM193 262q0 -123 67 -181t178 -58q83 0 151 37q70 37 99 75l27 37v334h-191q-69 0 -115 -6q-45 -6 -102 -29q-55 -22 -84.5 -74.5t-29.5 -134.5zM428 1077l152 211h96l-197 -211h-51z" />
<glyph unicode="&#xe2;" horiz-adv-x="927" d="M104 268q0 279 390 279h221v125q0 227 -221 227q-91 0 -164.5 -23.5t-126.5 -76.5l-8 -8v59q13 11 34 24q23 16 101 38q78 24 164 24q94 0 156.5 -24.5t91.5 -70.5q30 -46 41.5 -93.5t11.5 -110.5v-637h-47l-23 125q-110 -140 -303 -140q-67 0 -123 16.5t-103 51.5 q-92 69 -92 215zM193 262q0 -123 67 -181t178 -58q83 0 151 37q70 37 99 75l27 37v334h-191q-69 0 -115 -6q-45 -6 -102 -29q-55 -22 -84.5 -74.5t-29.5 -134.5zM238 1077l213 211h28l213 -211h-69l-158 160l-158 -160h-69z" />
<glyph unicode="&#xe3;" horiz-adv-x="927" d="M104 268q0 279 390 279h221v125q0 227 -221 227q-91 0 -164.5 -23.5t-126.5 -76.5l-8 -8v59q13 11 34 24q23 16 101 38q78 24 164 24q94 0 156.5 -24.5t91.5 -70.5q30 -46 41.5 -93.5t11.5 -110.5v-637h-47l-23 125q-110 -140 -303 -140q-67 0 -123 16.5t-103 51.5 q-92 69 -92 215zM147 1126q45 166 177 166q61 0 149 -61q88 -60 135 -60t77 37q30 38 36 82h57q-39 -168 -168 -168q-70 0 -155 60q-87 61 -127 61q-93 0 -121 -117h-60zM193 262q0 -123 67 -181t178 -58q83 0 151 37q70 37 99 75l27 37v334h-191q-69 0 -115 -6 q-45 -6 -102 -29q-55 -22 -84.5 -74.5t-29.5 -134.5z" />
<glyph unicode="&#xe4;" horiz-adv-x="927" d="M104 268q0 279 390 279h221v125q0 227 -221 227q-91 0 -164.5 -23.5t-126.5 -76.5l-8 -8v59q13 11 34 24q23 16 101 38q78 24 164 24q94 0 156.5 -24.5t91.5 -70.5q30 -46 41.5 -93.5t11.5 -110.5v-637h-47l-23 125q-110 -140 -303 -140q-67 0 -123 16.5t-103 51.5 q-92 69 -92 215zM193 262q0 -123 67 -181t178 -58q83 0 151 37q70 37 99 75l27 37v334h-191q-69 0 -115 -6q-45 -6 -102 -29q-55 -22 -84.5 -74.5t-29.5 -134.5zM285 1163v125h80v-125h-80zM561 1163v125h80v-125h-80z" />
<glyph unicode="&#xe5;" horiz-adv-x="927" d="M104 268q0 279 390 279h221v125q0 227 -221 227q-91 0 -164.5 -23.5t-126.5 -76.5l-8 -8v59q13 11 34 24q23 16 101 38q78 24 164 24q94 0 156.5 -24.5t91.5 -70.5q30 -46 41.5 -93.5t11.5 -110.5v-637h-47l-23 125q-110 -140 -303 -140q-67 0 -123 16.5t-103 51.5 q-92 69 -92 215zM193 262q0 -123 67 -181t178 -58q83 0 151 37q70 37 99 75l27 37v334h-191q-69 0 -115 -6q-45 -6 -102 -29q-55 -22 -84.5 -74.5t-29.5 -134.5zM313 1228q0 63 44 107q43 43 107 43t107 -43t43 -107t-43 -107q-44 -44 -107 -44t-107 44t-44 107zM362 1229 q0 -21 8 -40t22 -33t33 -22t40 -8q41 0 71 30q31 30 31 73q0 40 -31 71t-71 31q-43 0 -73 -31q-30 -30 -30 -71z" />
<glyph unicode="&#xe6;" horiz-adv-x="1576" d="M104 268q0 256 390 256h221v148q0 227 -221 227q-91 0 -164.5 -23.5t-126.5 -76.5l-8 -8v59q13 11 34 24q23 16 101 38q78 24 164 24q239 0 286 -176q102 176 336 176q359 0 359 -440v-13h-672q0 -463 315 -463q207 0 305 125v-61q-4 -5 -11 -12t-17 -16q-20 -17 -99 -45 q-81 -26 -180 -26q-249 0 -346 197q-66 -93 -147 -146q-76 -51 -201 -51q-67 0 -123 16.5t-103 51.5q-92 69 -92 215zM193 262q0 -62 17.5 -107t49.5 -74t77 -43.5t101 -14.5q112 0 192 63q78 63 122 141q-37 102 -37 242v14h-191q-69 0 -115 -6q-44 -6 -102 -26 q-55 -19 -84.5 -66.5t-29.5 -122.5zM805 524h579q-2 182 -57 278q-55 97 -211 97q-142 0 -225 -104q-81 -102 -86 -271z" />
<glyph unicode="&#xe7;" horiz-adv-x="864" d="M104 459q0 210 95 344q96 133 317 133q83 0 149 -25q69 -25 95 -49l26 -24v-64q0 2 -9 14t-32 31q-11 9 -24 18.5t-28 17.5q-29 17 -76.5 30.5t-98.5 13.5q-327 0 -325 -440q0 -438 327 -439q81 0 146 25q34 13 57.5 24.5t36.5 24.5l26 27v-58l-30 -21q-20 -14 -89 -36 q-69 -21 -151 -21l-4 -58q82 0 142 -42q61 -42 61 -124q0 -81 -56 -127.5t-155 -46.5q-90 0 -162 33v51q84 -39 147 -39q84 0 127 36t43 89q0 72 -47 98q-45 25 -153 37l10 95q-195 17 -280 146q-85 130 -85 326z" />
<glyph unicode="&#xe8;" horiz-adv-x="966" d="M104 469q0 91 19.5 167.5t61.5 146.5q42 72 124.5 112.5t196.5 40.5q358 0 358 -440v-33h-671q0 -442 315 -443q207 0 305 125v-61q-4 -5 -11 -12t-17 -16q-20 -17 -99 -45q-81 -26 -180 -26q-199 0 -301 127q-101 128 -101 357zM195 504h579q0 92 -9 155t-36 122 q-27 60 -81.5 89t-141.5 29q-147 0 -229 -109q-82 -107 -82 -286zM268 1288h97l151 -211h-51z" />
<glyph unicode="&#xe9;" horiz-adv-x="966" d="M104 469q0 91 19.5 167.5t61.5 146.5q42 72 124.5 112.5t196.5 40.5q358 0 358 -440v-33h-671q0 -442 315 -443q207 0 305 125v-61q-4 -5 -11 -12t-17 -16q-20 -17 -99 -45q-81 -26 -180 -26q-199 0 -301 127q-101 128 -101 357zM195 504h579q0 92 -9 155t-36 122 q-27 60 -81.5 89t-141.5 29q-147 0 -229 -109q-82 -107 -82 -286zM473 1077l152 211h96l-197 -211h-51z" />
<glyph unicode="&#xea;" horiz-adv-x="966" d="M104 469q0 91 19.5 167.5t61.5 146.5q42 72 124.5 112.5t196.5 40.5q358 0 358 -440v-33h-671q0 -442 315 -443q207 0 305 125v-61q-4 -5 -11 -12t-17 -16q-20 -17 -99 -45q-81 -26 -180 -26q-199 0 -301 127q-101 128 -101 357zM195 504h579q0 92 -9 155t-36 122 q-27 60 -81.5 89t-141.5 29q-147 0 -229 -109q-82 -107 -82 -286zM268 1077l213 211h29l213 -211h-70l-157 160l-158 -160h-70z" />
<glyph unicode="&#xeb;" horiz-adv-x="966" d="M104 469q0 91 19.5 167.5t61.5 146.5q42 72 124.5 112.5t196.5 40.5q358 0 358 -440v-33h-671q0 -442 315 -443q207 0 305 125v-61q-4 -5 -11 -12t-17 -16q-20 -17 -99 -45q-81 -26 -180 -26q-199 0 -301 127q-101 128 -101 357zM195 504h579q0 92 -9 155t-36 122 q-27 60 -81.5 89t-141.5 29q-147 0 -229 -109q-82 -107 -82 -286zM317 1163v125h80v-125h-80zM594 1163v125h80v-125h-80z" />
<glyph unicode="&#xec;" horiz-adv-x="407" d="M-22 1288h96l151 -211h-51zM164 0v920h80v-920h-80z" />
<glyph unicode="&#xed;" horiz-adv-x="407" d="M164 0v920h80v-920h-80zM182 1077l152 211h96l-197 -211h-51z" />
<glyph unicode="&#xee;" horiz-adv-x="407" d="M-24 1077l212 211h29l213 -211h-70l-157 160l-158 -160h-69zM164 0v920h80v-920h-80z" />
<glyph unicode="&#xef;" horiz-adv-x="407" d="M25 1163v125h79v-125h-79zM164 0v920h80v-920h-80zM301 1163v125h80v-125h-80z" />
<glyph unicode="&#xf0;" horiz-adv-x="1021" d="M104 461q0 97 20.5 177.5t65.5 149.5q46 70 128 109t196 39q171 0 274 -94q-107 257 -233 346l-115 -96l-26 30l108 95q-28 23 -56.5 42.5t-59.5 38.5q-60 36 -95 52t-37 14l27 39q135 -44 268 -148l103 88l30 -30l-100 -84q159 -138 238 -339q80 -204 80 -429 q0 -97 -20.5 -177.5t-67.5 -150.5t-127.5 -109t-192.5 -39q-114 0 -196 39t-127 109t-65 150.5t-20 177.5zM193 461q0 -229 88 -335t229 -106q322 0 321 441q0 239 -83 339q-83 99 -232 99q-325 0 -323 -438z" />
<glyph unicode="&#xf1;" horiz-adv-x="983" d="M143 0v920h47l23 -127q0 5 33 37q34 32 109 69t165 37q330 0 330 -328v-608h-80v580q0 319 -254 319q-83 0 -156 -39q-36 -20 -62 -38.5t-42.5 -34t-24.5 -26t-8 -13.5v-748h-80zM186 1124q45 166 176 166q61 0 149 -61q88 -60 136 -60q47 0 77 37q30 38 36 82h57 q-39 -168 -168 -168q-70 0 -155 60q-87 61 -127 61q-93 0 -121 -117h-60z" />
<glyph unicode="&#xf2;" horiz-adv-x="1021" d="M104 461q0 97 20.5 177.5t65.5 149.5q46 70 128 109t196 39q115 0 196.5 -39t126.5 -109q45 -69 64 -149.5t19 -177.5t-20.5 -177.5t-67.5 -150.5t-127.5 -109t-192.5 -39q-114 0 -196 39t-127 109t-65 150.5t-20 177.5zM193 461q0 -229 88 -335t229 -106q322 0 321 441 q0 239 -83 339q-83 99 -232 99q-325 0 -323 -438zM289 1288h96l152 -211h-52z" />
<glyph unicode="&#xf3;" horiz-adv-x="1021" d="M104 461q0 97 20.5 177.5t65.5 149.5q46 70 128 109t196 39q115 0 196.5 -39t126.5 -109q45 -69 64 -149.5t19 -177.5t-20.5 -177.5t-67.5 -150.5t-127.5 -109t-192.5 -39q-114 0 -196 39t-127 109t-65 150.5t-20 177.5zM193 461q0 -229 88 -335t229 -106q322 0 321 441 q0 239 -83 339q-83 99 -232 99q-325 0 -323 -438zM496 1077l151 211h96l-196 -211h-51z" />
<glyph unicode="&#xf4;" horiz-adv-x="1021" d="M104 461q0 97 20.5 177.5t65.5 149.5q46 70 128 109t196 39q115 0 196.5 -39t126.5 -109q45 -69 64 -149.5t19 -177.5t-20.5 -177.5t-67.5 -150.5t-127.5 -109t-192.5 -39q-114 0 -196 39t-127 109t-65 150.5t-20 177.5zM193 461q0 -229 88 -335t229 -106q322 0 321 441 q0 239 -83 339q-83 99 -232 99q-325 0 -323 -438zM289 1077l213 211h28l213 -211h-69l-158 160l-158 -160h-69z" />
<glyph unicode="&#xf5;" horiz-adv-x="1021" d="M104 461q0 97 20.5 177.5t65.5 149.5q46 70 128 109t196 39q115 0 196.5 -39t126.5 -109q45 -69 64 -149.5t19 -177.5t-20.5 -177.5t-67.5 -150.5t-127.5 -109t-192.5 -39q-114 0 -196 39t-127 109t-65 150.5t-20 177.5zM193 461q0 -229 88 -335t229 -106q322 0 321 441 q0 239 -83 339q-83 99 -232 99q-325 0 -323 -438zM201 1124q45 166 176 166q61 0 149 -61q88 -60 135 -60q49 0 77 37q30 38 36 82h57q-39 -168 -167 -168q-68 0 -155 60q-86 61 -128 61q-93 0 -121 -117h-59z" />
<glyph unicode="&#xf6;" horiz-adv-x="1021" d="M104 461q0 97 20.5 177.5t65.5 149.5q46 70 128 109t196 39q115 0 196.5 -39t126.5 -109q45 -69 64 -149.5t19 -177.5t-20.5 -177.5t-67.5 -150.5t-127.5 -109t-192.5 -39q-114 0 -196 39t-127 109t-65 150.5t-20 177.5zM193 461q0 -229 88 -335t229 -106q322 0 321 441 q0 239 -83 339q-83 99 -232 99q-325 0 -323 -438zM328 1163v125h80v-125h-80zM604 1163v125h80v-125h-80z" />
<glyph unicode="&#xf7;" horiz-adv-x="1265" d="M227 530v52h799v-52h-799zM573 154v104h105v-104h-105zM573 850v104h105v-104h-105z" />
<glyph unicode="&#xf8;" horiz-adv-x="1021" d="M104 461q0 97 20.5 177.5t65.5 149.5q46 70 128 109t196 39q154 0 256 -78l45 62h53l-65 -93q117 -123 117 -366q0 -97 -20.5 -177.5t-67.5 -150.5t-127.5 -109t-192.5 -39q-161 0 -258 76l-45 -61h-53l65 92q-117 123 -117 369zM193 461q0 -203 69 -311l475 661 q-76 88 -221 88q-323 0 -323 -438zM291 113q79 -93 219 -93q322 0 321 441q0 207 -67 313z" />
<glyph unicode="&#xf9;" horiz-adv-x="993" d="M143 328v592h80v-584q0 -315 258 -316q63 0 117.5 20t92.5 57l51 50q8 7 14 16t12 19l2 2v736h80v-920h-49l-21 127l-12 -14q-12 -14 -37.5 -36t-58.5 -44q-33 -21 -85 -34.5t-110 -13.5q-167 0 -250.5 89t-83.5 254zM283 1288h96l151 -211h-51z" />
<glyph unicode="&#xfa;" horiz-adv-x="993" d="M143 328v592h80v-584q0 -315 258 -316q63 0 117.5 20t92.5 57l51 50q8 7 14 16t12 19l2 2v736h80v-920h-49l-21 127l-12 -14q-12 -14 -37.5 -36t-58.5 -44q-33 -21 -85 -34.5t-110 -13.5q-167 0 -250.5 89t-83.5 254zM489 1077l152 211h96l-196 -211h-52z" />
<glyph unicode="&#xfb;" horiz-adv-x="993" d="M143 328v592h80v-584q0 -315 258 -316q63 0 117.5 20t92.5 57l51 50q8 7 14 16t12 19l2 2v736h80v-920h-49l-21 127l-12 -14q-12 -14 -37.5 -36t-58.5 -44q-33 -21 -85 -34.5t-110 -13.5q-167 0 -250.5 89t-83.5 254zM272 1077l213 211h29l213 -211h-70l-157 160 l-158 -160h-70z" />
<glyph unicode="&#xfc;" horiz-adv-x="993" d="M143 328v592h80v-584q0 -315 258 -316q63 0 117.5 20t92.5 57l51 50q8 7 14 16t12 19l2 2v736h80v-920h-49l-21 127l-12 -14q-12 -14 -37.5 -36t-58.5 -44q-33 -21 -85 -34.5t-110 -13.5q-167 0 -250.5 89t-83.5 254zM322 1163v125h79v-125h-79zM598 1163v125h80v-125 h-80z" />
<glyph unicode="&#xfd;" horiz-adv-x="884" d="M57 920h86l312 -811l319 811h53l-530 -1331h-49l166 411zM410 1077l151 211h96l-196 -211h-51z" />
<glyph unicode="&#xfe;" horiz-adv-x="995" d="M143 -411v1812h80v-598q97 133 285 133q385 0 385 -473q0 -114 -24.5 -202.5t-73 -150t-122 -93.5t-171.5 -32q-84 0 -152.5 26.5t-116.5 88.5l-10 13v-524h-80zM223 174l11 -16q4 -5 12 -14t21 -23t27 -26t28 -22q30 -21 78 -37t102 -16q152 0 227 100q76 100 76 340 t-78 339q-78 100 -221 100q-55 0 -105.5 -16.5t-81.5 -40.5q-30 -23 -52.5 -47.5t-33.5 -40.5l-10 -17v-563z" />
<glyph unicode="&#xff;" horiz-adv-x="884" d="M57 920h86l312 -811l319 811h53l-530 -1331h-49l166 411zM250 1163v125h80v-125h-80zM526 1163v125h80v-125h-80z" />
<glyph unicode="&#x152;" horiz-adv-x="2066" d="M102 700q0 153 30 275.5t96 228.5q67 108 191.5 167t301.5 59q386 0 532 -287v258h684v-41h-596v-604h461v-41h-461v-674h596v-41h-684v270q-150 -298 -536 -298q-614 0 -615 728zM195 700q0 -355 145 -522q145 -168 375 -168q244 0 388 162t144 528q0 375 -138 533 t-382 158q-242 0 -387 -166t-145 -525z" />
<glyph unicode="&#x153;" horiz-adv-x="1693" d="M104 461q0 97 20.5 177.5t65.5 149.5q46 70 128 109t196 39q279 0 360 -242q84 242 359 242q358 0 358 -440v-33h-671q0 -442 315 -443q207 0 305 125v-61q-4 -5 -11 -12t-17 -16q-20 -17 -99 -45q-81 -26 -180 -26q-274 0 -359 246q-84 -248 -362 -246q-114 0 -196 39 t-127 109t-65 150.5t-20 177.5zM193 461q0 -229 88 -335t229 -106q322 0 321 441q0 239 -83 339q-83 99 -232 99q-325 0 -323 -438zM922 504h579q0 92 -9 155t-36 122q-52 118 -223 118q-147 0 -229 -109q-82 -107 -82 -286z" />
<glyph unicode="&#x178;" horiz-adv-x="1130" d="M53 1401h105l413 -727l441 727h65l-477 -785v-616h-88v606zM367 1561v129h90v-129h-90zM725 1561v129h90v-129h-90z" />
<glyph unicode="&#x2c6;" horiz-adv-x="587" d="M59 1077l213 211h29l213 -211h-70l-157 160l-158 -160h-70z" />
<glyph unicode="&#x2dc;" horiz-adv-x="776" d="M66 1124q45 166 176 166q61 0 149 -61q88 -60 135 -60t77 37q30 38 36 82h57q-39 -168 -168 -168q-70 0 -155 60q-87 61 -127 61q-93 0 -121 -117h-59z" />
<glyph unicode="&#x2013;" horiz-adv-x="907" d="M127 592v49h653v-49h-653z" />
<glyph unicode="&#x2014;" horiz-adv-x="1812" d="M127 592v49h1559v-49h-1559z" />
<glyph unicode="&#x2018;" horiz-adv-x="307" d="M100 1130v84l76 187h39l-53 -166h43v-105h-105z" />
<glyph unicode="&#x2019;" horiz-adv-x="307" d="M92 1130l53 166h-43v105h105v-84l-76 -187h-39z" />
<glyph unicode="&#x201a;" horiz-adv-x="307" d="M92 -165l53 165h-43v104h105v-84l-76 -185h-39z" />
<glyph unicode="&#x201c;" horiz-adv-x="471" d="M100 1130v84l76 187h39l-53 -166h43v-105h-105zM264 1130v84l76 187h39l-53 -166h43v-105h-105z" />
<glyph unicode="&#x201d;" horiz-adv-x="471" d="M92 1130l53 166h-43v105h105v-84l-76 -187h-39zM256 1130l53 166h-43v105h105v-84l-76 -187h-39z" />
<glyph unicode="&#x201e;" horiz-adv-x="471" d="M92 -165l53 165h-43v104h105v-84l-76 -185h-39zM256 -165l53 165h-43v104h105v-84l-76 -185h-39z" />
<glyph unicode="&#x2022;" horiz-adv-x="831" d="M307 620q0 45 32 77t77 32q44 0 76 -32t32 -77t-32 -77q-31 -31 -76 -31q-46 0 -77 31q-32 32 -32 77z" />
<glyph unicode="&#x2026;" horiz-adv-x="1640" d="M260 0v104h105v-104h-105zM768 0v104h104v-104h-104zM1276 0v104h104v-104h-104z" />
<glyph unicode="&#x2039;" horiz-adv-x="567" d="M94 516v29l322 375h78l-334 -388l327 -389h-77z" />
<glyph unicode="&#x203a;" horiz-adv-x="567" d="M94 920h78l322 -375v-29l-316 -373h-78l328 389z" />
<glyph unicode="&#x20ac;" horiz-adv-x="1406" d="M-9 606l21 60h183v98h-146l23 59h129q32 265 188 435q157 172 440 172q236 0 377 -99l-20 -55q-145 115 -363 115q-200 0 -352 -139q-152 -138 -180 -429h721l-23 -59h-700q-1 -9 -1.5 -23t-0.5 -34v-41h665l-24 -60h-637q23 -294 168 -445t362 -151q124 0 232 41 q54 20 91 38.5t57 34.5q39 30 52 50v-70q-49 -49 -158 -91q-109 -41 -278 -41q-148 0 -264.5 50.5t-189.5 141.5q-145 181 -164 442h-208z" />
<glyph unicode="&#x2122;" horiz-adv-x="1189" d="M70 1374v27h446v-27h-199v-528h-49v528h-198zM463 846l98 567h29l178 -483l184 483h27l102 -567h-47l-82 473l-180 -473h-27l-167 463l-82 -463h-33z" />
<glyph unicode="&#xe000;" horiz-adv-x="920" d="M0 920h920v-920h-920v920z" />
<glyph unicode="&#xfb01;" horiz-adv-x="1007" d="M770 0v920h80v-920h-80zM770 1161v125h80v-125h-80zM61 879v41h144v210q0 136 56 204q55 67 206 67h111v-41h-105q-188 0 -188 -209v-231h252v-41h-252v-879h-80v879h-144z" />
<glyph unicode="&#xfb02;" horiz-adv-x="1007" d="M770 0v1401h80v-1401h-80zM61 879v41h144v210q0 136 56 204q55 67 206 67h111v-41h-105q-188 0 -188 -209v-231h252v-41h-252v-879h-80v879h-144z" />
<glyph unicode="&#xfb03;" horiz-adv-x="1613" d="M1376 0v920h80v-920h-80zM1376 1161v125h80v-125h-80zM667 879v41h144v210q0 136 56 204q55 67 206 67h111v-41h-105q-188 0 -188 -209v-231h252v-41h-252v-879h-80v879h-144zM61 879v41h144v210q0 136 56 204q55 67 206 67h111v-41h-105q-188 0 -188 -209v-231h252v-41 h-252v-879h-80v879h-144z" />
<glyph unicode="&#xfb04;" horiz-adv-x="1613" d="M1376 0v1401h80v-1401h-80zM667 879v41h144v210q0 136 56 204q55 67 206 67h111v-41h-105q-188 0 -188 -209v-231h252v-41h-252v-879h-80v879h-144zM61 879v41h144v210q0 136 56 204q55 67 206 67h111v-41h-105q-188 0 -188 -209v-231h252v-41h-252v-879h-80v879h-144z " />
</font>
</defs>
</svg>
